# xmcd CD database file
#
# Track frame offsets:
#	150
#	8694
#	23964
#	37877
#	52540
#	66434
#	74375
#	87578
#	100905
#	113097
#	125982
#	150171
#	166869
#	185751
#	204098
#	219503
#	238222
#
# Disc length: 3401 seconds
#
# Revision: 9
# Processed by: cddbd v1.5.1PL0 Copyright (c) Steve Scherf et al.
# Submitted via: CDex 1.51
#
DISCID=e00d4711
DTITLE=The Blues Brothers - The Definitive Blues Brothers Collection 1
DYEAR=1900
DGENRE=Blues
TTITLE0=Opening: I Can't Turn You Loose
TTITLE1=Everybody Needs Somebody To Love
TTITLE2=Gimme Some Lovin'
TTITLE3=Think
TTITLE4=Soul Man
TTITLE5=Soul Finger
TTITLE6=Messin' With The Kid
TTITLE7=Hey Bartender
TTITLE8=(I Got Every Thing I Need) Almost
TTITLE9=Rubber Biscuit
TTITLE10=Shot Gun Blues
TTITLE11=Groove Me
TTITLE12=I Don't Know
TTITLE13="B" Movie Box Car Blues
TTITLE14=Flip Flop And Fly
TTITLE15=She Caught The Katy
TTITLE16=Peter Gunn Theme
EXTD=
EXTT0=
EXTT1=
EXTT2=
EXTT3=
EXTT4=
EXTT5=
EXTT6=
EXTT7=
EXTT8=
EXTT9=
EXTT10=
EXTT11=
EXTT12=
EXTT13=
EXTT14=
EXTT15=
EXTT16=
PLAYORDER=
